# xmcd CD database file
#
# Track frame offsets:
#	150
#	21259
#	42899
#	59151
#	80169
#	98087
#	122991
#	142045
#	165616
#	185904
#	218359
#	244856
#	261424
#	270530
#
# Disc length: 3840 seconds
#
# Revision: 0
# Processed by: cddbd v1.5.2PL0 Copyright (c) Steve Scherf et al.
# Submitted via: Feurio! 1.68 - http://www.feurio.com
#
DISCID=d60efe0e
DTITLE=Rory Gallagher - 2008 # The Essential Rory Gallagher
DYEAR=1900
DGENRE=
TTITLE0=Follow Me
TTITLE1=Moonchild
TTITLE2=Sold
TTITLE3=Laundromat
TTITLE4=Bad Penny
TTITLE5=Edged In Blue
TTITLE6=Brute Force and Ignorance (live)
TTITLE7=I Fall Apart
TTITLE8=Loan Shark Blues
TTITLE9=Who's That Coming
TTITLE10=As The Crow Flies (live)
TTITLE11=Grape Rag
TTITLE12=Lonesome Highway
TTITLE13=Out On The Western Plain
EXTD=
EXTT0=
EXTT1=
EXTT2=
EXTT3=
EXTT4=
EXTT5=
EXTT6=
EXTT7=
EXTT8=
EXTT9=
EXTT10=
EXTT11=
EXTT12=
EXTT13=
PLAYORDER=
